<svg width="59" height="56" viewBox="0 0 59 56" fill="none" xmlns="http://www.w3.org/2000/svg">
<mask id="mask0_1_306" style="mask-type:luminance" maskUnits="userSpaceOnUse" x="0" y="0" width="59" height="56">
<path d="M22.9225 53C21.624 49.0063 19.6656 46.0275 17.0461 44.0663C13.1175 41.125 6.87534 42.9537 4.56983 39.9187C2.26431 36.8837 6.18501 31.3038 7.56037 28.0113C8.93705 24.7188 2.28684 23.555 3.06329 22.62C3.58005 21.9962 6.94159 20.1988 13.1453 17.225C14.9075 7.7425 21.4173 3 32.6772 3C49.5658 3 56 16.5075 56 25.1C56 33.69 48.209 42.945 37.1107 44.9413C36.1183 46.3038 37.5493 48.9912 41.4037 53" stroke="white" stroke-width="4.667" stroke-linecap="round" stroke-linejoin="round"/>
<path fill-rule="evenodd" clip-rule="evenodd" d="M23.5378 16.1251C22.6712 19.2926 22.9283 21.5176 24.3103 22.7988C25.6909 24.0788 28.0441 24.9176 31.3699 25.3113C30.6146 29.3976 31.5355 31.3138 34.1299 31.0613C36.7243 30.8101 38.2838 29.7926 38.8072 28.0113C42.8617 29.0863 45.0599 28.1863 45.4004 25.3113C45.9105 20.9988 43.446 17.5601 42.435 17.5601C41.4254 17.5601 38.8072 17.4438 38.8072 16.1251C38.8072 14.8063 35.749 14.0626 32.9891 14.0626C30.2291 14.0626 31.8893 12.3063 28.0998 13.0001C25.573 13.4626 24.0519 14.5038 23.5378 16.1251Z" fill="white" stroke="white" stroke-width="4" stroke-linejoin="round"/>
<path d="M38.1122 29.875C36.7647 30.6638 34.9163 31.975 34.1372 33C32.1908 35.5625 30.6127 37.1225 30.2682 38.76" stroke="white" stroke-width="4" stroke-linecap="round"/>
</mask>
<g mask="url(#mask0_1_306)">
<path d="M-2.30005 -2H61.3003V58H-2.30005V-2Z" fill="white"/>
</g>
</svg>
