<svg width="30" height="33" viewBox="0 0 30 33" fill="none" xmlns="http://www.w3.org/2000/svg">
<path d="M10.4177 26.2503C9.30951 26.2502 5.85693 26.2501 3.29894 26.25C1.93603 26.2499 1.05133 24.8808 1.66089 23.7173L3.22692 20.7281C3.73611 19.7562 4.00124 18.6856 4.00129 17.5988C4.00135 16.2519 4.00145 14.2511 4.00155 12.2502C4.00171 8.75026 5.83543 1.75045 15.0023 1.7509C24.1692 1.75134 26.0022 8.75132 26.0021 12.2513C26.002 14.2522 26.0019 16.2529 26.0018 17.5999C26.0018 18.6866 26.2668 19.7573 26.7759 20.7292L28.3416 23.7186C28.951 24.8822 28.0645 26.2511 26.7017 26.2511L19.5846 26.2507M10.4177 26.2503C10.4175 29.7502 12.2508 31.5003 15.0009 31.5004C17.7509 31.5006 19.5844 29.7507 19.5846 26.2507M10.4177 26.2503C13.2816 26.2504 19.5846 26.2507 19.5846 26.2507" stroke="#758CA3" stroke-width="2.5" stroke-linejoin="round"/>
</svg>
