<svg width="24" height="23" viewBox="0 0 24 23" fill="none" xmlns="http://www.w3.org/2000/svg">
<path d="M6.69231 10.7263H5.80769V12.2596H6.69231V10.7263ZM17.3077 12.2596H18.1923V10.7263H17.3077V12.2596ZM6.69326 15.3233L5.80865 15.3225L5.80674 16.8558L6.69135 16.8567L6.69326 15.3233ZM17.3068 16.8667L18.1914 16.8674L18.1932 15.3341L17.3086 15.3333L17.3068 16.8667ZM6.69289 6.12932L5.80828 6.12881L5.80711 7.66214L6.69172 7.66265L6.69289 6.12932ZM13.7686 7.66667L14.6533 7.66717L14.6544 6.13384L13.7698 6.13333L13.7686 7.66667ZM17.3077 0.766667L17.9333 0.224552L17.6741 0H17.3077V0.766667ZM22.6154 5.36667H23.5V5.0491L23.241 4.82456L22.6154 5.36667ZM6.69231 12.2596H17.3077V10.7263H6.69231V12.2596ZM6.69135 16.8567L17.3068 16.8667L17.3086 15.3333L6.69326 15.3233L6.69135 16.8567ZM6.69172 7.66265L13.7686 7.66667L13.7698 6.13333L6.69289 6.12932L6.69172 7.66265ZM20.8462 21.4667H3.15385V23H20.8462V21.4667ZM2.26923 20.7V2.3H0.5V20.7H2.26923ZM3.15385 1.53333H17.3077V0H3.15385V1.53333ZM21.7308 5.36667V20.7H23.5V5.36667H21.7308ZM16.6821 1.30878L21.9898 5.90878L23.241 4.82456L17.9333 0.224552L16.6821 1.30878ZM3.15385 21.4667C2.66529 21.4667 2.26923 21.1234 2.26923 20.7H0.5C0.5 21.9702 1.68816 23 3.15385 23V21.4667ZM20.8462 23C22.3118 23 23.5 21.9702 23.5 20.7H21.7308C21.7308 21.1234 21.3346 21.4667 20.8462 21.4667V23ZM2.26923 2.3C2.26923 1.87659 2.66529 1.53333 3.15385 1.53333V0C1.68816 0 0.5 1.02975 0.5 2.3H2.26923Z" fill="#758CA3"/>
</svg>
