<svg width="23" height="21" viewBox="0 0 23 21" fill="none" xmlns="http://www.w3.org/2000/svg">
<path d="M22.9999 15.6816C22.9999 14.2111 22.5969 12.7913 21.8343 11.5754C21.2858 10.7009 20.5795 9.97474 19.761 9.43508C20.7247 8.43793 21.3276 7.02856 21.3276 5.46733C21.3276 2.45267 19.0828 0 16.3238 0C14.6877 0 13.1551 0.884077 12.2242 2.33534C11.9877 2.2977 11.746 2.27739 11.5 2.27739C11.254 2.27739 11.0123 2.29776 10.7758 2.33534C9.84482 0.884077 8.31224 0 6.67623 0C3.91709 0 1.67232 2.45267 1.67232 5.46733C1.67232 7.02856 2.27528 8.43793 3.23904 9.43508C2.42045 9.97467 1.71412 10.7009 1.16567 11.5754C0.40309 12.7913 0 14.2111 0 15.6816V18.7227H4.8238V21H18.1763V18.7227H23V15.6816H22.9999ZM16.3238 1.34939C18.402 1.34939 20.0927 3.19668 20.0927 5.46739C20.0927 7.7381 18.402 9.58539 16.3238 9.58539C16.2865 9.58539 16.2493 9.58479 16.212 9.58357C16.2148 9.57494 16.2172 9.5661 16.22 9.55746C16.2843 9.35817 16.338 9.15348 16.381 8.9444C16.384 8.92956 16.3875 8.91485 16.3904 8.89994C16.4016 8.84354 16.4114 8.78659 16.421 8.72952C16.4255 8.70253 16.4301 8.67561 16.4342 8.64856C16.442 8.59762 16.4491 8.54648 16.4555 8.49514C16.46 8.45945 16.4641 8.42376 16.468 8.388C16.4729 8.34267 16.4776 8.29726 16.4815 8.25159C16.4855 8.20497 16.4885 8.15828 16.4913 8.11153C16.4935 8.07469 16.4963 8.03799 16.4978 8.00095C16.5012 7.92154 16.5031 7.842 16.5034 7.76239C16.5034 7.75652 16.5038 7.75079 16.5038 7.74485C16.5038 7.74168 16.5036 7.73851 16.5036 7.73534C16.5035 7.65404 16.5013 7.57321 16.498 7.49266C16.497 7.46925 16.4957 7.44591 16.4944 7.42256C16.4908 7.35408 16.486 7.28594 16.4802 7.21814C16.4788 7.20276 16.4777 7.18738 16.4763 7.17206C16.2897 5.20144 15.1503 3.51472 13.5065 2.73454C14.2148 1.8651 15.2394 1.34939 16.3238 1.34939ZM10.1959 3.88086C10.208 3.87607 10.2201 3.87155 10.2322 3.86682C10.2696 3.85218 10.3074 3.83829 10.3454 3.82486C10.3742 3.81481 10.4031 3.80509 10.4323 3.79578C10.4535 3.78897 10.4747 3.78242 10.496 3.77595C10.534 3.76455 10.5723 3.75341 10.6109 3.74323C10.8961 3.66753 11.1936 3.62644 11.4998 3.62644C11.8063 3.62671 12.1039 3.66787 12.3893 3.74356C12.4276 3.75368 12.4656 3.76475 12.5034 3.77608C12.525 3.78263 12.5467 3.78924 12.5681 3.79619C12.5969 3.80543 12.6255 3.81501 12.654 3.82493C12.6924 3.83849 12.7307 3.85252 12.7686 3.86736C12.7802 3.87188 12.7919 3.8762 12.8035 3.88086C14.064 4.39016 15.009 5.61582 15.2229 7.10325C15.2246 7.11512 15.2262 7.12706 15.2278 7.139C15.2347 7.1894 15.2404 7.2402 15.2455 7.29114C15.2474 7.30989 15.2494 7.32858 15.251 7.34741C15.2551 7.39389 15.2581 7.44071 15.2608 7.48767C15.262 7.50777 15.2635 7.52781 15.2644 7.54798C15.267 7.60796 15.2684 7.66827 15.2686 7.72893C15.2686 7.73419 15.2689 7.73932 15.2689 7.74458C15.2689 7.74701 15.2687 7.7495 15.2687 7.75193C15.2686 7.81063 15.267 7.86892 15.2647 7.92701C15.2639 7.94529 15.2632 7.96357 15.2622 7.98179C15.2593 8.03792 15.2555 8.09378 15.2505 8.14924C15.2486 8.1707 15.246 8.19208 15.2438 8.21347C15.24 8.24936 15.2358 8.28519 15.2313 8.32081C15.2277 8.34854 15.2241 8.37633 15.22 8.40393C15.2138 8.44596 15.2069 8.48772 15.1995 8.52935C15.1929 8.56638 15.1856 8.60329 15.1781 8.64012C15.1736 8.66232 15.1689 8.68452 15.164 8.70658C15.152 8.76129 15.1388 8.81567 15.1247 8.86985C15.1191 8.89137 15.1138 8.91303 15.1079 8.93435C15.0993 8.96538 15.09 8.99614 15.0808 9.02691C15.0734 9.05153 15.0658 9.07602 15.058 9.10045C15.0491 9.12818 15.0403 9.15597 15.031 9.1835C15.015 9.23025 14.9982 9.2766 14.9807 9.32255C14.9729 9.34306 14.9646 9.36336 14.9565 9.38381C14.9413 9.42206 14.9256 9.46011 14.9093 9.49776C14.9074 9.50221 14.9055 9.50666 14.9036 9.51111C14.8977 9.52447 14.8919 9.5379 14.8859 9.55126C14.8676 9.59201 14.8486 9.63228 14.8291 9.67222C14.8215 9.68774 14.8142 9.70346 14.8064 9.71891C14.8059 9.71992 14.8054 9.72087 14.8049 9.72181C14.7835 9.76431 14.7612 9.80614 14.7386 9.8477C14.7296 9.86416 14.7207 9.88069 14.7115 9.89695C14.6868 9.94074 14.6614 9.98405 14.6353 10.0267C14.619 10.0532 14.6021 10.0792 14.5853 10.1053C14.571 10.1274 14.5568 10.1496 14.5422 10.1714C14.5232 10.1996 14.5039 10.2275 14.4842 10.2552C14.4709 10.274 14.4574 10.2927 14.4439 10.3113C14.4231 10.3397 14.4022 10.3679 14.3808 10.3956C14.3675 10.4128 14.3539 10.4297 14.3404 10.4466C14.3181 10.4745 14.296 10.5024 14.2731 10.5296C14.2595 10.5457 14.2455 10.5612 14.2316 10.5771C14.1945 10.62 14.1564 10.6619 14.1176 10.703C14.0946 10.7273 14.0717 10.7517 14.0481 10.7754C14.0318 10.7918 14.0151 10.8077 13.9985 10.8239C13.9714 10.8501 13.9442 10.8761 13.9165 10.9015C13.9024 10.9143 13.8882 10.9271 13.8739 10.9398C13.8404 10.9696 13.8064 10.9988 13.7719 11.0274C13.7625 11.0352 13.7533 11.0431 13.7438 11.0508C13.1165 11.5603 12.3399 11.8624 11.4999 11.8624C10.6598 11.8624 9.88317 11.5603 9.25581 11.0506C9.24655 11.043 9.23747 11.0352 9.22827 11.0276C9.19363 10.9989 9.15948 10.9695 9.12583 10.9396C9.11169 10.927 9.09755 10.9143 9.08359 10.9015C9.05575 10.876 9.02845 10.8499 9.00128 10.8236C8.9848 10.8075 8.96813 10.7918 8.95189 10.7754C8.92824 10.7517 8.90527 10.7272 8.88217 10.7028C8.84321 10.6616 8.80511 10.6196 8.76782 10.5766C8.75417 10.5609 8.74021 10.5456 8.72681 10.5297C8.70391 10.5024 8.68174 10.4744 8.65951 10.4465C8.64599 10.4296 8.6324 10.4128 8.61913 10.3956C8.5977 10.3679 8.57683 10.3397 8.55608 10.3114C8.5425 10.2928 8.52897 10.2741 8.51564 10.2552C8.49606 10.2275 8.47674 10.1997 8.45778 10.1715C8.44315 10.1496 8.42888 10.1274 8.41462 10.1052C8.39782 10.0791 8.3809 10.0532 8.36473 10.0268C8.33848 9.98392 8.31298 9.94047 8.28822 9.89655C8.27914 9.88042 8.27038 9.86416 8.26148 9.84791C8.23845 9.80574 8.21591 9.76337 8.19424 9.72026C8.18627 9.7044 8.17874 9.68828 8.1709 9.67236C8.15139 9.63228 8.13231 9.59187 8.11397 9.55105C8.10742 9.53655 8.10106 9.52191 8.0947 9.50734C8.09371 9.50511 8.09279 9.50288 8.09186 9.50066C8.07476 9.46126 8.05839 9.42145 8.0424 9.38131C8.03481 9.36222 8.02709 9.34319 8.0198 9.32403C8.0019 9.27707 7.98479 9.22971 7.96843 9.18195C7.9596 9.15617 7.95145 9.13013 7.94311 9.10416C7.93453 9.07751 7.92625 9.05066 7.91817 9.02374C7.90946 8.99459 7.90069 8.96545 7.89254 8.93617C7.88038 8.89238 7.86889 8.84833 7.85809 8.804C7.85049 8.7729 7.84364 8.74153 7.83666 8.71022C7.83122 8.6856 7.82598 8.66097 7.82097 8.63621C7.8148 8.60585 7.80856 8.57556 7.80301 8.54507C7.79442 8.49757 7.78658 8.4498 7.77954 8.40177C7.77571 8.37586 7.77238 8.34989 7.76898 8.32398C7.76398 8.28559 7.75947 8.247 7.75546 8.20827C7.75348 8.18918 7.7512 8.17009 7.74941 8.151C7.74428 8.09412 7.74039 8.03684 7.73743 7.97936C7.73657 7.96283 7.73589 7.9463 7.73521 7.92977C7.73268 7.86831 7.73088 7.80665 7.73088 7.74458C7.73088 7.67806 7.73261 7.61201 7.73552 7.54623C7.73632 7.52835 7.73768 7.51061 7.7386 7.4928C7.74132 7.44341 7.74459 7.39416 7.74891 7.34518C7.7504 7.32811 7.75219 7.31111 7.75385 7.29411C7.75916 7.24108 7.76515 7.18832 7.77232 7.1359C7.77368 7.12571 7.77503 7.11546 7.77652 7.10527C7.98973 5.61696 8.93497 4.3905 10.1959 3.88086ZM2.90727 5.46739C2.90727 3.19675 4.59799 1.34939 6.67623 1.34939C7.76071 1.34939 8.78517 1.86517 9.49348 2.7344C7.84919 3.51485 6.70951 5.20239 6.52347 7.17382C6.52217 7.18717 6.52125 7.2006 6.52007 7.21402C6.5139 7.28426 6.50902 7.35476 6.50531 7.42567C6.5042 7.44726 6.50297 7.46878 6.50204 7.49043C6.49852 7.57483 6.49611 7.6595 6.49611 7.74478C6.49611 7.83087 6.4984 7.91675 6.5021 8.00257C6.50359 8.03711 6.50618 8.07132 6.50822 8.10566C6.51124 8.15504 6.51433 8.20443 6.51853 8.25368C6.52223 8.29746 6.5268 8.34098 6.5315 8.3845C6.53557 8.42241 6.53989 8.46019 6.54471 8.49797C6.55101 8.54756 6.5578 8.59695 6.56527 8.64613C6.56978 8.67534 6.57472 8.70449 6.5796 8.73363C6.58886 8.78869 6.59831 8.8436 6.60905 8.89805C6.61263 8.91599 6.61671 8.93381 6.62041 8.95168C6.66234 9.15429 6.71439 9.35264 6.77639 9.54606C6.78034 9.55854 6.7838 9.57116 6.78781 9.58357C6.75058 9.58479 6.71328 9.58539 6.67611 9.58539C4.59799 9.58533 2.90727 7.73803 2.90727 5.46739ZM5.85912 14.0694C5.84554 14.0928 5.83257 14.1166 5.81923 14.1402C5.79102 14.19 5.76304 14.2399 5.736 14.2903C5.72087 14.3184 5.7063 14.3468 5.6916 14.3751C5.66727 14.4218 5.64325 14.4687 5.61991 14.516C5.60522 14.5458 5.59077 14.5757 5.57644 14.6056C5.55397 14.6526 5.53205 14.6999 5.51056 14.7473C5.49703 14.7771 5.48357 14.8069 5.47048 14.8368C5.44862 14.8868 5.42757 14.9372 5.40676 14.9877C5.39546 15.0151 5.38385 15.0424 5.37292 15.07C5.34884 15.1304 5.32587 15.1914 5.30333 15.2525C5.29673 15.2704 5.28969 15.288 5.28326 15.3059C5.25467 15.3853 5.22732 15.4653 5.20139 15.5456C5.19546 15.564 5.19015 15.5827 5.18428 15.6011C5.16477 15.663 5.14575 15.7252 5.12778 15.7876C5.11957 15.8162 5.11198 15.845 5.10407 15.8738C5.08956 15.9267 5.0753 15.9796 5.0619 16.0329C5.05393 16.0646 5.04634 16.0964 5.03874 16.1283C5.02652 16.1794 5.01478 16.2307 5.00367 16.2822C4.99657 16.3147 4.98965 16.3473 4.98305 16.38C4.97243 16.4321 4.96248 16.4845 4.95291 16.5369C4.94717 16.5684 4.94124 16.5999 4.93587 16.6316C4.92618 16.6886 4.91747 16.746 4.90901 16.8034C4.90506 16.8304 4.90067 16.8572 4.89697 16.8842C4.88548 16.9686 4.87505 17.0531 4.86628 17.138C4.86616 17.139 4.8661 17.1401 4.86603 17.1411C4.85807 17.2183 4.85121 17.2957 4.84547 17.3734H1.23496V15.6816C1.23496 13.3704 2.45102 11.2955 4.35618 10.3092C5.05023 10.7078 5.83918 10.9347 6.67617 10.9347C6.91822 10.9347 7.16101 10.9152 7.40195 10.8764C7.4395 10.9349 7.47766 10.9928 7.51718 11.0496C7.53051 11.0687 7.54434 11.0873 7.55793 11.1062C7.59695 11.1607 7.63653 11.2146 7.67741 11.2675C7.69414 11.2891 7.71131 11.3103 7.72835 11.3317C7.76664 11.3797 7.80554 11.4272 7.8453 11.4736C7.86617 11.4981 7.88742 11.5222 7.90866 11.5463C7.94503 11.5873 7.98189 11.6276 8.01937 11.6673C8.03345 11.6822 8.04672 11.698 8.06093 11.7128C8.00727 11.7482 7.9541 11.7845 7.90143 11.8216C7.89285 11.8276 7.88445 11.8339 7.87593 11.84C7.82326 11.8774 7.77114 11.9155 7.71952 11.9545C7.70168 11.968 7.68389 11.9816 7.66611 11.9952C7.62011 12.0306 7.5746 12.0667 7.52946 12.1033C7.5152 12.1149 7.50075 12.1262 7.48661 12.138C7.42919 12.1854 7.37244 12.2337 7.31643 12.2831C7.30421 12.2939 7.29223 12.305 7.28 12.316C7.23542 12.3558 7.19127 12.3964 7.14768 12.4375C7.13076 12.4534 7.11396 12.4695 7.09717 12.4856C7.05351 12.5277 7.01041 12.5703 6.96774 12.6135C6.95663 12.6248 6.94527 12.6359 6.93421 12.6473C6.88185 12.7011 6.83029 12.756 6.77947 12.8118C6.76626 12.8263 6.75336 12.841 6.74026 12.8556C6.70136 12.899 6.66289 12.9428 6.62492 12.9873C6.60985 13.005 6.59479 13.0227 6.57984 13.0405C6.53711 13.0915 6.495 13.1432 6.45357 13.1956C6.44709 13.2039 6.44036 13.2118 6.43387 13.2201C6.38664 13.2804 6.34045 13.3418 6.29488 13.4038C6.28216 13.421 6.26975 13.4386 6.25721 13.4561C6.22294 13.5036 6.18917 13.5517 6.15595 13.6002C6.1431 13.6189 6.1302 13.6375 6.11754 13.6564C6.07407 13.7212 6.03115 13.7865 5.98947 13.853C5.94471 13.9243 5.90136 13.9966 5.85912 14.0694ZM6.05875 19.6507V18.7227V17.959C6.05875 17.8841 6.06005 17.8095 6.06258 17.7351C6.06339 17.7106 6.06518 17.6863 6.06629 17.6619C6.06851 17.6123 6.07061 17.5625 6.07394 17.5131C6.07598 17.4831 6.07907 17.4533 6.08154 17.4233C6.08512 17.3798 6.08833 17.3361 6.09278 17.2928C6.09605 17.2611 6.10031 17.2296 6.10402 17.1979C6.10883 17.1567 6.11334 17.1154 6.1189 17.0744C6.1234 17.0418 6.12884 17.0094 6.13378 16.9769C6.13983 16.9373 6.14545 16.8976 6.15224 16.8583C6.15798 16.8251 6.16465 16.7921 6.17089 16.759C6.17805 16.7208 6.18491 16.6825 6.19275 16.6446C6.19966 16.6111 6.20757 16.578 6.21498 16.5447C6.22331 16.5076 6.23128 16.4703 6.24023 16.4333C6.24838 16.3998 6.2574 16.3666 6.26604 16.3334C6.27543 16.2971 6.28457 16.2608 6.29457 16.2249C6.30389 16.1914 6.31414 16.1582 6.32396 16.125C6.33446 16.0897 6.34465 16.0543 6.3557 16.0193C6.3662 15.9862 6.3775 15.9533 6.38849 15.9205C6.4001 15.8858 6.41146 15.851 6.42362 15.8166C6.43523 15.7839 6.44758 15.7515 6.45962 15.719C6.47228 15.6851 6.48475 15.6509 6.49797 15.6173C6.51075 15.5848 6.52421 15.5527 6.53749 15.5206C6.55113 15.4875 6.56465 15.4542 6.57886 15.4214C6.59275 15.3894 6.60732 15.3577 6.62171 15.326C6.6364 15.2936 6.65092 15.2611 6.66611 15.2291C6.68111 15.1975 6.69673 15.1663 6.71223 15.1351C6.72792 15.1035 6.74341 15.0718 6.75959 15.0405C6.77565 15.0095 6.79232 14.9789 6.8088 14.9482C6.82548 14.9173 6.84203 14.8863 6.85925 14.8557C6.87636 14.8253 6.89402 14.7953 6.91161 14.7652C6.92927 14.7351 6.94681 14.7049 6.96496 14.6751C6.98312 14.6453 7.00177 14.6159 7.02041 14.5865C7.039 14.5571 7.05752 14.5278 7.07654 14.4988C7.09568 14.4696 7.11538 14.4409 7.13508 14.4121C7.15459 14.3835 7.17404 14.355 7.19399 14.3269C7.21412 14.2984 7.23474 14.2704 7.25536 14.2424C7.2758 14.2146 7.2963 14.1869 7.31717 14.1595C7.33823 14.1319 7.35972 14.1048 7.38121 14.0776C7.40263 14.0506 7.42412 14.0235 7.44604 13.9968C7.46796 13.9701 7.49038 13.9438 7.51273 13.9175C7.53508 13.8912 7.55744 13.8651 7.58022 13.8393C7.60307 13.8134 7.62635 13.7879 7.64969 13.7625C7.67297 13.7371 7.69637 13.7118 7.72008 13.6867C7.74373 13.6618 7.76775 13.6373 7.79189 13.6128C7.8161 13.5882 7.84043 13.5637 7.86506 13.5396C7.88964 13.5156 7.91446 13.4919 7.93947 13.4683C7.96454 13.4447 7.98979 13.4211 8.0153 13.3979C8.04067 13.3748 8.0663 13.3521 8.09211 13.3295C8.1181 13.3067 8.14429 13.2841 8.17071 13.2618C8.19683 13.2398 8.2232 13.218 8.24969 13.1965C8.27661 13.1745 8.30372 13.1529 8.33113 13.1315C8.35793 13.1105 8.38498 13.0899 8.41221 13.0693C8.44012 13.0484 8.46815 13.0277 8.49643 13.0072C8.52391 12.9874 8.55164 12.9677 8.57948 12.9484C8.60832 12.9283 8.63734 12.9086 8.66655 12.8891C8.69471 12.8704 8.72305 12.8518 8.75158 12.8336C8.78121 12.8147 8.8111 12.796 8.84117 12.7776C8.87001 12.7599 8.89903 12.7424 8.92824 12.7253C8.9588 12.7073 8.98961 12.6897 9.02061 12.6723C9.05 12.6558 9.07952 12.6395 9.10928 12.6235C9.13268 12.611 9.15633 12.5988 9.17998 12.5866C9.87397 12.9852 10.663 13.212 11.5 13.212C12.337 13.212 13.126 12.9852 13.82 12.5866C13.8434 12.5988 13.8669 12.6108 13.8901 12.6233C13.9202 12.6395 13.9501 12.6559 13.9798 12.6726C14.0104 12.6898 14.041 12.7072 14.0712 12.7249C14.1007 12.7423 14.1301 12.7599 14.1592 12.7778C14.1889 12.796 14.2184 12.8145 14.2477 12.8332C14.2766 12.8517 14.3054 12.8705 14.3339 12.8896C14.3627 12.9088 14.3913 12.9282 14.4197 12.948C14.448 12.9676 14.476 12.9874 14.5039 13.0076C14.5318 13.0278 14.5596 13.0483 14.5871 13.069C14.6146 13.0897 14.6419 13.1106 14.6691 13.1318C14.6962 13.1529 14.723 13.1744 14.7496 13.1961C14.7764 13.2178 14.803 13.2398 14.8294 13.262C14.8556 13.2842 14.8815 13.3066 14.9073 13.3292C14.9333 13.3519 14.9591 13.3748 14.9846 13.398C15.01 13.421 15.0351 13.4445 15.06 13.468C15.0852 13.4917 15.1102 13.5155 15.1349 13.5397C15.1593 13.5637 15.1835 13.588 15.2075 13.6123C15.2318 13.637 15.2561 13.6618 15.28 13.687C15.3035 13.7118 15.3267 13.7369 15.3497 13.762C15.3732 13.7877 15.3966 13.8134 15.4197 13.8394C15.4423 13.865 15.4645 13.891 15.4867 13.917C15.5093 13.9435 15.5319 13.9701 15.554 13.997C15.5757 14.0235 15.597 14.0502 15.6182 14.0771C15.6399 14.1044 15.6616 14.1318 15.6828 14.1596C15.7036 14.1868 15.7239 14.2144 15.7442 14.242C15.765 14.2702 15.7857 14.2983 15.806 14.3269C15.8258 14.3549 15.8452 14.3833 15.8645 14.4117C15.8843 14.4406 15.9041 14.4695 15.9233 14.4988C15.9423 14.5276 15.9608 14.5569 15.9792 14.5861C15.9979 14.6157 16.0167 14.6452 16.0349 14.6752C16.0529 14.7048 16.0704 14.7348 16.0879 14.7647C16.1056 14.795 16.1234 14.8252 16.1406 14.8559C16.1577 14.8861 16.1741 14.9169 16.1906 14.9475C16.2073 14.9784 16.2241 15.0093 16.2402 15.0405C16.2563 15.0717 16.2718 15.1033 16.2874 15.1347C16.303 15.1661 16.3186 15.1974 16.3336 15.229C16.3488 15.261 16.3633 15.2934 16.378 15.3258C16.3924 15.3575 16.407 15.3892 16.4209 15.4214C16.4351 15.4541 16.4486 15.4873 16.4621 15.5203C16.4755 15.5526 16.489 15.5848 16.5018 15.6173C16.5149 15.6507 16.5272 15.6845 16.5398 15.7183C16.552 15.7511 16.5645 15.7837 16.5762 15.8168C16.5883 15.851 16.5996 15.8856 16.6111 15.9201C16.6222 15.9531 16.6335 15.986 16.644 16.0192C16.6551 16.0544 16.6654 16.0899 16.6759 16.1254C16.6857 16.1585 16.6959 16.1915 16.7051 16.2249C16.7152 16.2608 16.7243 16.2972 16.7337 16.3334C16.7424 16.3667 16.7514 16.3998 16.7595 16.4333C16.7685 16.4703 16.7764 16.5075 16.7848 16.5447C16.7922 16.5779 16.8001 16.6111 16.807 16.6446C16.8148 16.6825 16.8216 16.7208 16.8289 16.7589C16.8351 16.792 16.8418 16.825 16.8475 16.8583C16.8542 16.8973 16.8598 16.9366 16.8659 16.9759C16.8709 17.0088 16.8764 17.0414 16.8809 17.0745C16.8865 17.1152 16.8909 17.1562 16.8957 17.1971C16.8995 17.229 16.9038 17.2607 16.9071 17.2927C16.9115 17.336 16.9148 17.3797 16.9183 17.4233C16.9208 17.4532 16.9239 17.483 16.9259 17.513C16.9293 17.5625 16.9314 17.6123 16.9336 17.662C16.9347 17.6863 16.9365 17.7106 16.9373 17.735C16.9398 17.8095 16.9411 17.8841 16.9411 17.959V18.7226V19.6507H6.05875ZM18.1548 17.3734C18.1427 17.209 18.1253 17.0457 18.1032 16.8833C18.0996 16.8576 18.0954 16.8321 18.0917 16.8065C18.0831 16.7477 18.0741 16.6891 18.0642 16.6307C18.0589 16.5999 18.0532 16.5693 18.0476 16.5386C18.0379 16.4852 18.0278 16.432 18.017 16.379C18.0104 16.347 18.0036 16.315 17.9967 16.2832C17.9854 16.2311 17.9735 16.1792 17.9612 16.1275C17.9537 16.0961 17.9463 16.0648 17.9383 16.0335C17.9248 15.9796 17.9104 15.9261 17.8957 15.8726C17.8879 15.8444 17.8805 15.8161 17.8724 15.788C17.8542 15.7246 17.8349 15.6616 17.8151 15.5987C17.8095 15.5812 17.8045 15.5634 17.7988 15.5459C17.7727 15.4653 17.7454 15.3851 17.7167 15.3054C17.7105 15.2884 17.7038 15.2715 17.6975 15.2544C17.6747 15.1926 17.6513 15.1308 17.627 15.0696C17.6161 15.0424 17.6047 15.0155 17.5936 14.9885C17.5726 14.9375 17.5514 14.8867 17.5293 14.8362C17.5164 14.8067 17.503 14.7773 17.4898 14.748C17.4681 14.7001 17.4459 14.6524 17.4232 14.6049C17.409 14.5753 17.3948 14.5457 17.3802 14.5162C17.3567 14.4688 17.3327 14.4217 17.3082 14.3748C17.2935 14.3466 17.279 14.3184 17.264 14.2904C17.2368 14.2397 17.2087 14.1896 17.1803 14.1395C17.1671 14.1162 17.1543 14.0926 17.1408 14.0695C17.0985 13.9967 17.0552 13.9244 17.0103 13.853C16.9686 13.7864 16.9257 13.7211 16.8822 13.6564C16.8696 13.6376 16.8568 13.6191 16.8441 13.6004C16.8106 13.5517 16.7767 13.5035 16.7424 13.4557C16.7299 13.4385 16.7177 13.4211 16.7051 13.404C16.6594 13.3418 16.6131 13.2803 16.5657 13.2199C16.5595 13.2121 16.5532 13.2045 16.547 13.1967C16.5052 13.1438 16.4628 13.0917 16.4197 13.0403C16.4049 13.0227 16.39 13.0052 16.3751 12.9876C16.3369 12.9429 16.2982 12.8987 16.2591 12.8551C16.2462 12.8408 16.2335 12.8263 16.2205 12.812C16.1695 12.7562 16.1178 12.7011 16.0653 12.6471C16.0545 12.636 16.0434 12.6252 16.0325 12.6142C15.9896 12.5706 15.9462 12.5278 15.9024 12.4856C15.8857 12.4695 15.8689 12.4536 15.8521 12.4377C15.8084 12.3964 15.7643 12.3559 15.7196 12.316C15.7075 12.3051 15.6955 12.294 15.6833 12.2832C15.6274 12.2338 15.5706 12.1855 15.5133 12.1381C15.4989 12.1263 15.4844 12.1148 15.47 12.1032C15.425 12.0667 15.3798 12.0308 15.334 11.9956C15.316 11.9818 15.298 11.968 15.28 11.9544C15.2289 11.9159 15.1773 11.8781 15.1252 11.8411C15.116 11.8346 15.1071 11.8279 15.098 11.8215C15.0453 11.7846 14.9924 11.7484 14.9388 11.713C14.9526 11.6986 14.9656 11.6833 14.9792 11.6688C15.0175 11.6283 15.0551 11.5871 15.0921 11.5453C15.1128 11.5219 15.1334 11.4985 15.1536 11.4748C15.1941 11.4276 15.2335 11.3794 15.2724 11.3306C15.2889 11.3099 15.3055 11.2893 15.3218 11.2683C15.3632 11.2147 15.4035 11.16 15.4431 11.1046C15.456 11.0865 15.4693 11.0687 15.482 11.0504C15.5217 10.9934 15.5601 10.9353 15.5978 10.8766C15.8387 10.9152 16.0815 10.9348 16.3236 10.9348C17.1606 10.9348 17.9496 10.708 18.6436 10.3093C20.5488 11.2955 21.7648 13.3704 21.7648 15.6817V17.3734H18.1548Z" fill="#758CA3"/>
</svg>
