<svg width="24" height="21" viewBox="0 0 24 21" fill="none" xmlns="http://www.w3.org/2000/svg">
<path fill-rule="evenodd" clip-rule="evenodd" d="M2.41667 0H7.20833C8.26688 0 9.125 0.783501 9.125 1.75V6.125C9.125 7.0915 8.26688 7.875 7.20833 7.875H2.41667C1.35812 7.875 0.5 7.0915 0.5 6.125V1.75C0.5 0.783501 1.35812 0 2.41667 0ZM2.41667 9.625H7.20833C8.26688 9.625 9.125 10.4085 9.125 11.375V19.25C9.125 20.2165 8.26688 21 7.20833 21H2.41667C1.35812 21 0.5 20.2165 0.5 19.25V11.375C0.5 10.4085 1.35812 9.625 2.41667 9.625ZM12.9583 0H21.5833C22.6419 0 23.5 0.783501 23.5 1.75V11.375C23.5 12.3415 22.6419 13.125 21.5833 13.125H12.9583C11.8998 13.125 11.0417 12.3415 11.0417 11.375V1.75C11.0417 0.783501 11.8998 0 12.9583 0ZM12.9583 14.875H21.5833C22.6419 14.875 23.5 15.6585 23.5 16.625V19.25C23.5 20.2165 22.6419 21 21.5833 21H12.9583C11.8998 21 11.0417 20.2165 11.0417 19.25V16.625C11.0417 15.6585 11.8998 14.875 12.9583 14.875Z" fill="#758CA3"/>
</svg>
