<svg width="21" height="20" viewBox="0 0 21 20" fill="none" xmlns="http://www.w3.org/2000/svg">
<path d="M5.8671 2.99988H3.68355C2.47761 2.99988 1.5 3.89531 1.5 4.99988V16.9999C1.5 18.1045 2.47761 18.9999 3.68355 18.9999H5.8671M12.4178 2.99988H14.6013C15.8073 2.99988 16.7849 3.89531 16.7849 4.99988V6.99988" stroke="#758CA3" stroke-width="2" stroke-linecap="round" stroke-linejoin="round"/>
<path d="M12.3107 18.3343L9.92334 18.7716L10.4008 16.585C10.4431 16.3914 10.547 16.2136 10.6994 16.074L15.1472 12L17.3307 10L19.5 11.9869L17.3164 13.9869L12.8686 18.0608C12.7162 18.2004 12.5221 18.2956 12.3107 18.3343Z" stroke="#758CA3" stroke-width="2" stroke-linecap="round" stroke-linejoin="round"/>
<path d="M5.86719 3C5.86719 1.89543 6.8448 1 8.05074 1H10.2343C11.4403 1 12.4178 1.89543 12.4178 3V5H5.86719V3Z" stroke="#758CA3" stroke-width="2" stroke-linecap="round" stroke-linejoin="round"/>
</svg>
