<svg width="29" height="21" viewBox="0 0 29 21" fill="none" xmlns="http://www.w3.org/2000/svg">
<path d="M25.1695 0H12.8544C11.0172 0 9.52386 1.25119 9.52386 2.78764V3.98378H3.56035C1.87053 3.98378 0.5 5.13487 0.5 6.55121V14.4687C0.5 15.8851 1.87053 17.0362 3.56035 17.0362H4.74912L8.78211 20.8648C8.87207 20.9522 8.99182 21.0007 9.11614 20.9999C9.18371 21.0012 9.25074 20.9875 9.31263 20.9599C9.40009 20.9202 9.47443 20.8557 9.52672 20.774C9.57901 20.6923 9.60702 20.597 9.60737 20.4994V17.0362H14.6719C16.3618 17.0362 17.7323 15.8851 17.7323 14.4687V14.3536H18.5182V18.2373C18.5183 18.3355 18.5468 18.4316 18.6001 18.5135C18.6533 18.5953 18.7291 18.6594 18.8179 18.6977C18.8779 18.7258 18.9435 18.7395 19.0095 18.7378C19.1343 18.7381 19.2549 18.6918 19.3484 18.6077L23.8333 14.3536H25.1695C27.0067 14.3536 28.5 13.1024 28.5 11.561V2.78764C28.5 1.25119 27.0067 0 25.1695 0ZM16.7498 14.4687C16.7498 15.3195 15.7968 16.0352 14.6719 16.0352H9.11614C8.98586 16.0352 8.86091 16.0879 8.76879 16.1818C8.67667 16.2757 8.62491 16.403 8.62491 16.5357V19.3484L5.27474 16.1703C5.18414 16.0839 5.0648 16.0356 4.9407 16.0352H3.56035C2.41579 16.0352 1.48246 15.3345 1.48246 14.4687V6.55121C1.48246 5.6904 2.41579 4.98473 3.56035 4.98473H9.52386V11.561C9.52386 13.1024 11.0172 14.3536 12.8544 14.3536H16.7498V14.4687ZM27.5175 11.561C27.5175 12.5469 26.4614 13.3527 25.1695 13.3527H23.6368C23.5135 13.3524 23.3945 13.3988 23.3028 13.4828L19.5007 17.0912V13.8531C19.5014 13.7872 19.4891 13.7219 19.4646 13.6608C19.4402 13.5998 19.404 13.5444 19.3583 13.4978C19.3125 13.4512 19.2581 13.4143 19.1982 13.3894C19.1383 13.3645 19.0742 13.352 19.0095 13.3527H12.8544C11.5625 13.3527 10.5063 12.5469 10.5063 11.561V2.78764C10.5063 1.80171 11.5625 1.00095 12.8544 1.00095H25.1695C26.4614 1.00095 27.5175 1.80171 27.5175 2.78764V11.561Z" fill="#758CA3"/>
<path d="M14.0628 5.21484C13.6991 5.21534 13.3438 5.32562 13.0416 5.53176C12.7395 5.7379 12.5041 6.03064 12.3652 6.37302C12.2262 6.7154 12.19 7.09205 12.2611 7.45539C12.3321 7.81873 12.5073 8.15246 12.7644 8.41443C13.0215 8.67641 13.3491 8.85486 13.7057 8.92726C14.0624 8.99966 14.4321 8.96275 14.7681 8.82121C15.1042 8.67966 15.3915 8.43981 15.5938 8.13197C15.7962 7.82413 15.9044 7.46211 15.9049 7.09162C15.9048 6.59391 15.7106 6.11662 15.3652 5.76469C15.0198 5.41275 14.5513 5.21498 14.0628 5.21484ZM14.0628 7.96245C13.8932 7.96195 13.7277 7.91025 13.587 7.81388C13.4463 7.7175 13.3368 7.58079 13.2724 7.42102C13.2079 7.26125 13.1914 7.0856 13.225 6.91629C13.2585 6.74698 13.3406 6.59161 13.4608 6.46982C13.5811 6.34803 13.734 6.2653 13.9004 6.23209C14.0668 6.19888 14.2391 6.21668 14.3955 6.28324C14.552 6.34979 14.6855 6.46212 14.7793 6.60601C14.8731 6.7499 14.9229 6.9189 14.9224 7.09162C14.9211 7.32304 14.83 7.54453 14.6689 7.7077C14.5078 7.87087 14.2899 7.96245 14.0628 7.96245Z" fill="#758CA3"/>
<path d="M19.0096 5.21484C18.6459 5.21534 18.2906 5.32562 17.9884 5.53176C17.6863 5.7379 17.4509 6.03064 17.3119 6.37302C17.173 6.7154 17.1368 7.09205 17.2078 7.45539C17.2789 7.81873 17.4541 8.15246 17.7112 8.41443C17.9683 8.67641 18.2959 8.85486 18.6525 8.92726C19.0091 8.99966 19.3788 8.96275 19.7149 8.82121C20.0509 8.67966 20.3383 8.43981 20.5406 8.13197C20.7429 7.82413 20.8512 7.46211 20.8517 7.09162C20.8517 6.84514 20.8041 6.60106 20.7116 6.37333C20.619 6.1456 20.4833 5.93868 20.3123 5.76439C20.1412 5.59011 19.9381 5.45186 19.7146 5.35757C19.4911 5.26328 19.2515 5.21478 19.0096 5.21484ZM19.0096 7.96245C18.84 7.96195 18.6744 7.91025 18.5337 7.81388C18.393 7.7175 18.2836 7.58079 18.2191 7.42102C18.1547 7.26125 18.1382 7.0856 18.1718 6.91629C18.2053 6.74698 18.2874 6.59161 18.4076 6.46982C18.5279 6.34803 18.6808 6.2653 18.8472 6.23209C19.0136 6.19888 19.1859 6.21668 19.3423 6.28324C19.4988 6.34979 19.6323 6.46212 19.7261 6.60601C19.8199 6.7499 19.8697 6.9189 19.8692 7.09162C19.8691 7.20639 19.8468 7.32001 19.8035 7.42596C19.7603 7.53191 19.6969 7.6281 19.617 7.70902C19.5371 7.78993 19.4423 7.85398 19.3381 7.89747C19.2338 7.94096 19.1222 7.96304 19.0096 7.96245Z" fill="#758CA3"/>
<path d="M23.9612 5.21484C23.5976 5.21534 23.2422 5.32562 22.9401 5.53176C22.6379 5.7379 22.4025 6.03064 22.2636 6.37302C22.1247 6.7154 22.0884 7.09205 22.1595 7.45539C22.2306 7.81873 22.4057 8.15246 22.6628 8.41443C22.92 8.67641 23.2475 8.85486 23.6042 8.92726C23.9608 8.99966 24.3305 8.96275 24.6665 8.82121C25.0026 8.67966 25.2899 8.43981 25.4923 8.13197C25.6946 7.82413 25.8028 7.46211 25.8033 7.09162C25.8032 6.59391 25.6091 6.11662 25.2636 5.76469C24.9182 5.41275 24.4497 5.21498 23.9612 5.21484ZM23.9612 7.96245C23.7917 7.96195 23.6261 7.91025 23.4854 7.81388C23.3447 7.7175 23.2352 7.58079 23.1708 7.42102C23.1064 7.26125 23.0899 7.0856 23.1234 6.91629C23.157 6.74698 23.2391 6.59161 23.3593 6.46982C23.4795 6.34803 23.6325 6.2653 23.7989 6.23209C23.9652 6.19888 24.1375 6.21668 24.294 6.28324C24.4504 6.34979 24.584 6.46212 24.6778 6.60601C24.7716 6.7499 24.8213 6.9189 24.8209 7.09162C24.8207 7.20635 24.7983 7.31991 24.7549 7.4258C24.7116 7.53169 24.6482 7.62783 24.5684 7.70872C24.4885 7.78961 24.3938 7.85366 24.2896 7.8972C24.1854 7.94074 24.0738 7.96291 23.9612 7.96245Z" fill="#758CA3"/>
</svg>
