<svg width="15" height="18" viewBox="0 0 15 18" fill="none" xmlns="http://www.w3.org/2000/svg">
<path d="M7.5 0C5.5116 0.00210748 3.60531 0.71269 2.1993 1.97587C0.793282 3.23906 0.00235375 4.9517 7.97923e-06 6.73811C-0.00237354 8.19797 0.528403 9.61821 1.51092 10.781C1.51092 10.781 1.71546 11.0229 1.74887 11.0579L7.5 17.1516L13.2539 11.0548C13.2839 11.0223 13.4891 10.781 13.4891 10.781L13.4898 10.7791C14.4718 9.61689 15.0023 8.1973 15 6.73811C14.9976 4.9517 14.2067 3.23906 12.8007 1.97587C11.3947 0.71269 9.4884 0.00210748 7.5 0ZM7.5 9.18833C6.9606 9.18833 6.43331 9.04463 5.98481 8.7754C5.53631 8.50616 5.18675 8.12349 4.98033 7.67577C4.77391 7.22805 4.7199 6.73539 4.82513 6.2601C4.93037 5.7848 5.19011 5.34821 5.57153 5.00554C5.95294 4.66287 6.4389 4.42951 6.96794 4.33497C7.49697 4.24043 8.04534 4.28895 8.54368 4.4744C9.04202 4.65985 9.46797 4.9739 9.76764 5.37684C10.0673 5.77978 10.2273 6.2535 10.2273 6.73811C10.2264 7.3877 9.93874 8.01045 9.42747 8.46978C8.91621 8.92911 8.22304 9.18752 7.5 9.18833Z" fill="white"/>
</svg>
