<svg width="14" height="14" viewBox="0 0 14 14" fill="none" xmlns="http://www.w3.org/2000/svg">
<path d="M11.9 0H2.1C1.54305 0 1.0089 0.271055 0.615076 0.753536C0.221249 1.23602 0 1.8904 0 2.57273V11.1485C0 11.8308 0.221249 12.4852 0.615076 12.9677C1.0089 13.4502 1.54305 13.7212 2.1 13.7212H11.9C12.457 13.7212 12.9911 13.4502 13.3849 12.9677C13.7788 12.4852 14 11.8308 14 11.1485V2.57273C14 1.8904 13.7788 1.23602 13.3849 0.753536C12.9911 0.271055 12.457 0 11.9 0ZM11.9 1.71516L7.35 5.54853C7.24359 5.6238 7.12288 5.66342 7 5.66342C6.87712 5.66342 6.75641 5.6238 6.65 5.54853L2.1 1.71516H11.9Z" fill="white"/>
</svg>
