<svg width="14" height="16" viewBox="0 0 14 16" fill="none" xmlns="http://www.w3.org/2000/svg">
<path d="M13.7428 12.3228L10.5482 9.29075C10.3972 9.14748 10.1988 9.07107 9.99482 9.07765C9.79086 9.08423 9.59732 9.17329 9.45508 9.32603L7.57448 11.3449C7.12182 11.2547 6.21177 10.9585 5.27501 9.98313C4.33825 9.00445 4.05455 8.05202 3.97046 7.58278L5.90293 5.61885C6.04942 5.47047 6.13487 5.26841 6.14117 5.05544C6.14748 4.84246 6.07416 4.63528 5.93672 4.47774L3.03291 1.14382C2.89542 0.985788 2.70432 0.889927 2.50021 0.876601C2.2961 0.863275 2.09505 0.933533 1.93976 1.07245L0.234412 2.59913C0.0985433 2.74147 0.0174476 2.93092 0.00650858 3.13154C-0.00527954 3.33663 -0.23004 8.19476 3.3787 11.9635C6.52691 15.249 10.4704 15.4893 11.5565 15.4893C11.7153 15.4893 11.8127 15.4844 11.8386 15.4828C12.0308 15.4716 12.2122 15.3865 12.3479 15.2441L13.8096 13.4631C13.9432 13.3015 14.011 13.0918 13.9985 12.8787C13.9861 12.6657 13.8943 12.4662 13.7428 12.3228Z" fill="white"/>
</svg>
