<svg width="65" height="51" viewBox="0 0 65 51" fill="none" xmlns="http://www.w3.org/2000/svg">
<path d="M41.384 9.24408C42.6309 9.10916 43.8777 9.91859 43.8777 10.9979L47.9299 44.3194C48.0857 45.3987 47.1506 46.4778 45.9037 46.4778L7.56288 49.9853C6.31596 50.1202 5.06921 49.3108 5.06921 48.2315L1.017 15.0449C0.861115 13.9656 1.79626 12.8865 3.04318 12.8865L41.384 9.24408Z" stroke="#758CA3" stroke-width="2" stroke-linecap="round" stroke-linejoin="round"/>
<path d="M14.5771 21.4176C11.7717 21.6875 9.58976 23.8459 9.90137 26.4091C10.2131 28.8374 12.7068 30.726 15.6682 30.4563C18.4736 30.1865 20.6555 28.028 20.3439 25.4648C20.0323 22.9015 17.3826 21.1479 14.5771 21.4176ZM28.7601 29.2421L21.2789 37.2015C20.9671 37.4714 20.4996 37.6062 20.1879 37.3364L18.4734 36.1224C18.1617 35.8525 17.5383 35.9874 17.3824 36.2573L9.27783 44.8912C8.96606 45.1611 8.96606 45.7007 9.43372 45.8356C9.27783 45.9705 9.5896 45.9705 9.74549 45.9705L42.0079 43.0026C42.4754 43.0026 42.7872 42.598 42.7872 42.1932C42.7872 42.0583 42.6313 41.9233 42.6313 41.7886L30.0068 29.1074C29.5393 28.9725 29.0719 28.9722 28.7601 29.2421Z" stroke="#758CA3" stroke-width="2" stroke-linecap="round" stroke-linejoin="round"/>
<path d="M20.0312 11.2675L21.1223 2.76852C21.2782 1.68922 22.3692 0.879785 23.616 1.01471L61.9568 4.52217C63.2037 4.6571 64.1388 5.60147 63.9829 6.68062L59.9307 39.8672C59.9307 40.8116 58.6838 41.621 57.4371 41.621L47.4622 40.6766" stroke="#758CA3" stroke-width="2" stroke-linecap="round" stroke-linejoin="round"/>
<path d="M46.6833 33.7966L55.2554 34.606C55.7229 34.606 56.0347 34.3362 56.1905 33.9315C56.1905 33.7966 56.1905 33.6617 56.0347 33.5269L46.6832 18.8222C46.5273 18.5524 45.9039 18.4176 45.5921 18.5524L44.9688 19.092" stroke="#758CA3" stroke-width="2" stroke-linecap="round" stroke-linejoin="round"/>
</svg>
