<svg width="31" height="36" viewBox="0 0 31 36" fill="none" xmlns="http://www.w3.org/2000/svg">
<path d="M30.4263 19.8404L28.7547 18.7788C28.9454 17.676 28.9469 16.5675 28.7589 15.4744L30.4263 14.4154C30.6687 14.2614 30.7578 13.9857 30.6423 13.7468L29.0316 10.4139C28.9161 10.1749 28.6254 10.0339 28.3273 10.0721L26.2747 10.3339C25.5059 9.44705 24.5905 8.66412 23.5456 7.9998L23.8519 6.23595C23.8963 5.98008 23.7319 5.73117 23.4532 5.63224L19.5648 4.2518C19.2861 4.1528 18.9644 4.22916 18.7848 4.437L18.3822 4.90268V1.76618C18.3821 0.792281 17.4578 0 16.3216 0H14.9187C13.7824 0 12.8581 0.792281 12.8581 1.76618V4.90261L12.4555 4.43686C12.2759 4.22902 11.9543 4.15273 11.6755 4.25166L7.78711 5.6321C7.50829 5.7311 7.34389 5.98001 7.38836 6.2358L7.69376 7.99523C6.65918 8.65427 5.74576 9.43882 4.97081 10.3344L2.91298 10.0719C2.61438 10.0337 2.32407 10.1748 2.20866 10.4137L0.597973 13.7466C0.482473 13.9856 0.571559 14.2613 0.814044 14.4152L2.48559 15.4768C2.29487 16.5795 2.29348 17.6881 2.48141 18.7812L0.814044 19.8401C0.571559 19.9941 0.482473 20.2698 0.597973 20.5087L2.20866 23.8417C2.32416 24.0807 2.61488 24.2217 2.91298 24.1835L4.96564 23.9217C5.73452 24.8086 6.64983 25.5915 7.69466 26.2558L7.38836 28.0197C7.34398 28.2755 7.50837 28.5244 7.78711 28.6234L11.6755 30.004C11.9543 30.103 12.2759 30.0266 12.4555 29.8188L12.8581 29.353V29.4237C12.8581 29.4785 12.8674 29.5331 12.8858 29.5856L14.9902 35.5982C15.0737 35.8367 15.3297 36 15.6201 36C15.9105 36 16.1665 35.8367 16.25 35.5983L18.3544 29.5857C18.3728 29.5332 18.3821 29.4787 18.3821 29.4238V29.3531L18.7847 29.8189C18.9117 29.9659 19.1096 30.0471 19.3132 30.0471C19.3976 30.0471 19.483 30.0331 19.5647 30.0042L23.4531 28.6236C23.7319 28.5246 23.8963 28.2757 23.8519 28.0199L23.5465 26.2605C24.5811 25.6014 25.4946 24.8167 26.2696 23.9213L28.3273 24.1838C28.6259 24.222 28.9162 24.0809 29.0316 23.842L30.6422 20.5091C30.7578 20.27 30.6687 19.9943 30.4263 19.8404ZM14.1733 1.76618C14.1733 1.41391 14.5077 1.12732 14.9187 1.12732H16.3216C16.7325 1.12732 17.0669 1.41391 17.0669 1.76618V3.00628H14.1734L14.1733 1.76618ZM14.1733 4.1336H17.0668V5.81646C16.1007 5.724 15.1328 5.72288 14.1733 5.81302V4.1336ZM12.8581 21.3574C11.7581 20.8283 10.8826 19.9919 10.3951 18.983C9.28771 16.6913 10.3913 14.0806 12.8581 12.8988V21.3574ZM15.6201 33.4747L14.3996 29.9874H16.8406L15.6201 33.4747ZM17.0669 28.8601H14.1734V12.4427C15.1444 12.2219 16.1394 12.233 17.0669 12.4445V28.8601ZM12.9525 11.6077C9.4014 12.8686 7.7091 16.3706 9.18 19.4144C9.873 20.8486 11.2021 21.9999 12.8581 22.6136V23.9835C10.5634 23.3078 8.74203 21.847 7.80286 19.9034C6.01745 16.2086 8.07168 11.9577 12.3822 10.4274C16.6927 8.89706 21.6519 10.6578 23.4374 14.3525C24.3024 16.1423 24.3024 18.1136 23.4374 19.9034C22.5725 21.6932 20.9463 23.087 18.8582 23.8285C18.7016 23.884 18.5425 23.9349 18.3822 23.9824V22.6122C20.0566 21.9933 21.3609 20.8616 22.0603 19.4145C22.7728 17.94 22.7728 16.3159 22.0603 14.8414C20.5893 11.7977 16.5037 10.3471 12.9525 11.6077ZM18.3821 21.3574V12.9016C19.4538 13.4149 20.3399 14.2274 20.8451 15.2729C21.4232 16.4692 21.4232 17.7867 20.8451 18.983C20.3526 20.0022 19.4896 20.8283 18.3821 21.3574ZM28.0131 23.0039L26.0664 22.7557C25.8191 22.7241 25.5725 22.8154 25.4297 22.9913C24.616 23.9939 23.6173 24.8517 22.4614 25.5409C22.2563 25.6632 22.1497 25.8746 22.1865 26.0866L22.4754 27.7505L19.5357 28.7942L18.3821 27.4596V25.167C18.7134 25.0829 19.0416 24.9836 19.3614 24.87C21.7741 24.0135 23.6531 22.4028 24.6524 20.3349C25.6517 18.2669 25.6517 15.9891 24.6524 13.9212C22.5894 9.65222 16.859 7.6178 11.8786 9.38602C6.89814 11.1542 4.52456 16.0659 6.58748 20.335C7.73075 22.7009 10.0048 24.4477 12.858 25.1667V27.4598L11.7042 28.7944L8.76451 27.7507L9.05425 26.0821C9.091 25.8703 8.98452 25.6588 8.77936 25.5364C7.60968 24.8388 6.6089 23.9828 5.80482 22.9922C5.66209 22.8163 5.41542 22.7249 5.16818 22.7566L3.22691 23.0041L2.00924 20.4844L3.58613 19.483C3.78702 19.3554 3.88611 19.1413 3.8419 18.9304C3.59326 17.7425 3.59466 16.5306 3.84625 15.3285C3.89038 15.1176 3.79137 14.9035 3.59047 14.776L2.00907 13.7717L3.22675 11.252L5.17335 11.5002C5.42051 11.5317 5.66718 11.4405 5.80991 11.2647C6.62391 10.262 7.62255 9.40423 8.77821 8.71509C8.98337 8.59282 9.08993 8.38132 9.0531 8.16947L8.76427 6.50552L11.7039 5.4618L12.8724 6.81349C13.0212 6.98569 13.2708 7.07055 13.5169 7.03273C14.9026 6.81961 16.3164 6.8208 17.7191 7.03645C17.965 7.07428 18.2148 6.98934 18.3636 6.81722L19.5353 5.46173L22.475 6.50545L22.1852 8.17411C22.1485 8.38596 22.255 8.59739 22.4601 8.71973C23.6299 9.41737 24.6306 10.2734 25.4347 11.264C25.5774 11.4398 25.8242 11.5313 26.0713 11.4996L28.0126 11.252L29.2302 13.7717L27.6534 14.7732C27.4525 14.9008 27.3534 15.1148 27.3976 15.3257C27.6462 16.5136 27.6448 17.7254 27.3932 18.9276C27.3491 19.1384 27.4481 19.3525 27.649 19.48L29.2303 20.4844L28.0131 23.0039Z" fill="#758CA3"/>
</svg>
