<svg width="20" height="19" viewBox="0 0 20 19" fill="none" xmlns="http://www.w3.org/2000/svg">
<path fill-rule="evenodd" clip-rule="evenodd" d="M18.9586 0.827649C17.797 -0.275878 15.9138 -0.275888 14.7521 0.827649L13.0866 2.40989L5.24786 9.85667C5.12079 9.97743 5.03066 10.1287 4.98707 10.2943L3.99558 14.062C3.9111 14.383 4.0101 14.7225 4.25637 14.9564C4.50264 15.1904 4.86006 15.2845 5.19794 15.2042L9.16387 14.2623C9.33828 14.2209 9.49741 14.1353 9.62452 14.0145L17.4063 6.6219L19.1288 4.98549C20.2904 3.88196 20.2904 2.09278 19.1288 0.989254L18.9586 0.827649ZM16.1543 2.15972C16.5415 1.79188 17.1693 1.79188 17.5565 2.15972L17.7266 2.32133C18.1138 2.68918 18.1138 3.28557 17.7266 3.65341L16.7188 4.6109L15.1766 3.08857L16.1543 2.15972ZM13.7741 4.42089L15.3163 5.94321L8.41659 12.498L6.32014 12.9959L6.84424 11.0043L13.7741 4.42089ZM1.98299 5.81314C1.98299 5.29293 2.4269 4.87121 2.97448 4.87121H7.93194C8.47955 4.87121 8.92344 4.44951 8.92344 3.92929C8.92344 3.40909 8.47955 2.98737 7.93194 2.98737H2.97448C1.33172 2.98737 0 4.25251 0 5.81314V16.1742C0 17.7349 1.33172 19 2.97448 19H13.8809C15.5237 19 16.8554 17.7349 16.8554 16.1742V11.4646C16.8554 10.9445 16.4115 10.5227 15.8639 10.5227C15.3163 10.5227 14.8724 10.9445 14.8724 11.4646V16.1742C14.8724 16.6945 14.4285 17.1162 13.8809 17.1162H2.97448C2.4269 17.1162 1.98299 16.6945 1.98299 16.1742V5.81314Z" fill="#758CA3"/>
</svg>
