<svg width="24" height="21" viewBox="0 0 24 21" fill="none" xmlns="http://www.w3.org/2000/svg">
<path d="M2.92105 0V3.15H4.13158V0H2.92105ZM11.3947 0V12.6H12.6053V0H11.3947ZM19.8684 0V3.15H21.0789V0H19.8684ZM0.5 4.2V7.35H6.55263V4.2H0.5ZM17.4474 4.2V7.35H23.5V4.2H17.4474ZM1.71053 5.25H5.34211V6.3H1.71053V5.25ZM18.6579 5.25H22.2895V6.3H18.6579V5.25ZM2.92105 8.4V21H4.13158V8.4H2.92105ZM19.8684 8.4V21H21.0789V8.4H19.8684ZM8.97368 13.65V16.8H15.0263V13.65H8.97368ZM10.1842 14.7H13.8158V15.75H10.1842V14.7ZM11.3947 17.85V21H12.6053V17.85H11.3947Z" fill="#758CA3"/>
</svg>
