<svg width="23" height="21" viewBox="0 0 23 21" fill="none" xmlns="http://www.w3.org/2000/svg">
<path d="M16.8488 10.6891C15.9196 10.6891 15.0035 10.9601 14.1732 11.4754C13.3644 10.9717 12.4574 10.6891 11.5 10.6891C10.5426 10.6891 9.63561 10.9717 8.82674 11.4754C7.99645 10.96 7.08041 10.6891 6.15115 10.6891C2.75942 10.6891 0 14.2353 0 18.5942C0 19.1637 0.35924 19.6253 0.802305 19.6253H6.15115H10.6977V19.9689C10.6977 20.5384 11.0569 21 11.5 21C11.9431 21 12.3023 20.5383 12.3023 19.9689V19.6253H16.8488H22.1977C22.6408 19.6253 23 19.1636 23 18.5942C23 14.2353 20.2406 10.6891 16.8488 10.6891ZM5.40114 17.5631H1.67554C2.05562 14.8314 3.91795 12.7513 6.1512 12.7513C6.51453 12.7513 6.87498 12.8076 7.2247 12.9165C6.25016 14.1288 5.58568 15.7502 5.40114 17.5631ZM10.6977 17.5631H7.02439C7.35789 15.1663 8.83263 13.2714 10.6977 12.8428V17.5631ZM12.3023 17.5631V12.8428C14.1674 13.2714 15.6422 15.1662 15.9757 17.5631H12.3023ZM17.5989 17.5631C17.4143 15.7502 16.7498 14.1289 15.7753 12.9165C16.1251 12.8076 16.4855 12.7513 16.8488 12.7513C19.082 12.7513 20.9444 14.8314 21.3245 17.5631H17.5989Z" fill="#758CA3"/>
<path d="M16.849 0C15.7584 0 14.788 0.672273 14.1746 1.71085C13.5611 0.672273 12.5907 0 11.5002 0C10.4096 0 9.43918 0.672273 8.82573 1.71085C8.21228 0.672273 7.24187 0 6.1513 0C4.30057 0 2.79492 1.93496 2.79492 4.3134C2.79492 6.69185 4.30057 8.62681 6.1513 8.62681C7.24187 8.62681 8.21228 7.95453 8.82573 6.91596C9.43918 7.95453 10.4096 8.62681 11.5002 8.62681C12.5907 8.62681 13.5611 7.95453 14.1746 6.91596C14.788 7.95453 15.7584 8.62681 16.849 8.62681C18.6997 8.62681 20.2054 6.69185 20.2054 4.3134C20.2054 1.93496 18.6997 0 16.849 0ZM6.1513 6.56467C5.18535 6.56467 4.39958 5.55479 4.39958 4.31346C4.39958 3.07214 5.18539 2.06225 6.1513 2.06225C7.11721 2.06225 7.90303 3.07214 7.90303 4.31346C7.90303 5.55479 7.11726 6.56467 6.1513 6.56467ZM11.5002 6.56467C10.5342 6.56467 9.74842 5.55479 9.74842 4.31346C9.74842 3.07214 10.5342 2.06225 11.5002 2.06225C12.4661 2.06225 13.2519 3.07214 13.2519 4.31346C13.2519 5.55479 12.4661 6.56467 11.5002 6.56467ZM16.849 6.56467C15.883 6.56467 15.0973 5.55479 15.0973 4.31346C15.0973 3.07214 15.8831 2.06225 16.849 2.06225C17.8149 2.06225 18.6007 3.07214 18.6007 4.31346C18.6007 5.55479 17.815 6.56467 16.849 6.56467Z" fill="#758CA3"/>
</svg>
