<svg width="46" height="42" viewBox="0 0 46 42" fill="none" xmlns="http://www.w3.org/2000/svg">
<path opacity="0.5" d="M23 21C26.1756 21 28.75 18.6495 28.75 15.75C28.75 12.8505 26.1756 10.5 23 10.5C19.8244 10.5 17.25 12.8505 17.25 15.75C17.25 18.6495 19.8244 21 23 21Z" stroke="#758CA3" stroke-width="3.75"/>
<path d="M22.9997 38.5C33.5851 38.5 42.1663 30.665 42.1663 21C42.1663 11.335 33.5851 3.5 22.9997 3.5C12.4142 3.5 3.83301 11.335 3.83301 21C3.83301 30.665 12.4142 38.5 22.9997 38.5Z" stroke="#758CA3" stroke-width="3.75"/>
<path opacity="0.5" d="M34.4404 35C34.1355 29.9399 32.4386 26.25 22.9994 26.25C13.5605 26.25 11.8636 29.9399 11.5586 35" stroke="#758CA3" stroke-width="3.75" stroke-linecap="round"/>
</svg>
