<svg width="129" height="70" viewBox="0 0 129 70" fill="none" xmlns="http://www.w3.org/2000/svg">
<path d="M19.3291 0.185752L56.1769 0.903871L41.4623 23.0246L58.1986 23.3507L56.8975 68.1403L0.641237 67.0439L1.81872 26.5094L19.3291 0.185752ZM33.0679 11.6572L27.7236 11.5531L15.8047 29.4708L15.0306 56.1206L43.1587 56.6688L43.8092 34.274L18.3533 33.7779L33.0679 11.6572ZM89.6494 1.55621L126.497 2.27433L111.783 24.395L128.519 24.7212L127.218 69.5107L70.9615 68.4144L72.139 27.8798L89.6494 1.55621ZM103.388 13.0277L98.0438 12.9235L86.125 30.8413L85.3509 57.4911L113.479 58.0393L114.13 35.6445L88.6736 35.1484L103.388 13.0277Z" fill="#D7D7D7"/>
</svg>
