<svg width="153" height="83" viewBox="0 0 153 83" fill="none" xmlns="http://www.w3.org/2000/svg">
<path d="M23.2949 0.527344L66.9999 1.77997L49.2629 27.232L69.1136 27.801L67.0021 79.6612L0.277047 77.7488L2.18791 30.8153L23.2949 0.527344ZM39.4483 13.9705L33.1095 13.7888L18.7425 34.405L17.4862 65.2619L50.8487 66.2181L51.9044 40.2879L21.7113 39.4226L39.4483 13.9705ZM106.701 2.91786L150.406 4.17048L132.669 29.6225L152.52 30.1915L150.408 82.0518L83.6834 80.1393L85.5942 33.2058L106.701 2.91786ZM122.855 16.361L116.516 16.1794L102.149 36.7955L100.893 67.6524L134.255 68.6086L135.311 42.6784L105.118 41.8131L122.855 16.361Z" fill="#61D0DF"/>
</svg>
